<?xml version="1.0" standalone="no"?>
<!DOCTYPE svg PUBLIC "-//W3C//DTD SVG 20010904//EN"
 "http://www.w3.org/TR/2001/REC-SVG-20010904/DTD/svg10.dtd">
<svg version="1.0" xmlns="http://www.w3.org/2000/svg"
 width="542.000000pt" height="542.000000pt" viewBox="0 0 542.000000 542.000000"
 preserveAspectRatio="xMidYMid meet">
<metadata>
Created by potrace 1.11, written by Peter Selinger 2001-2013
</metadata>
<g transform="translate(0.000000,542.000000) scale(0.100000,-0.100000)"
fill="#000000" stroke="none">
<path d="M1790 4960 c-101 -9 -161 -17 -215 -32 -22 -5 -42 -10 -45 -10 -12 0
-159 -58 -210 -82 -180 -88 -347 -228 -469 -394 -65 -90 -176 -307 -210 -412
-26 -83 -67 -266 -77 -350 -10 -85 -11 -355 -1 -446 8 -70 7 -72 -32 -145 -85
-158 -143 -330 -176 -524 -13 -79 -14 -362 -1 -430 9 -44 14 -69 16 -75 1 -3
2 -8 1 -12 -2 -15 64 -198 91 -252 28 -55 29 -63 23 -140 -6 -80 -7 -217 0
-266 1 -14 6 -50 10 -80 18 -138 90 -324 170 -436 339 -475 1028 -549 1746
-188 l91 45 52 -22 c85 -36 232 -80 311 -93 17 -2 30 -5 30 -6 0 -1 16 -4 35
-6 256 -36 491 -15 694 61 187 70 312 151 461 299 108 107 112 110 200 141
262 92 482 255 619 460 70 105 110 193 143 313 36 132 41 351 11 487 -61 282
-203 546 -422 781 -57 62 -70 84 -97 160 -66 190 -171 386 -303 564 -78 106
-279 311 -371 380 -33 25 -61 48 -63 53 -2 4 -9 7 -15 7 -6 0 -18 7 -27 15
-21 19 -111 74 -196 121 -99 54 -323 142 -407 159 -10 2 -27 7 -37 10 -32 10
-178 35 -290 49 -28 4 -75 24 -125 54 -112 66 -128 75 -235 120 -98 41 -246
87 -314 97 -21 3 -41 7 -45 9 -3 3 -49 7 -101 11 -52 3 -104 7 -115 9 -11 1
-58 -1 -105 -4z m225 -55 c99 -8 344 -64 370 -85 6 -4 21 -11 35 -15 46 -14
250 -116 250 -126 0 -5 -35 -9 -77 -10 -43 0 -85 -2 -94 -4 -8 -1 -42 -6 -75
-10 -181 -20 -429 -96 -584 -178 -115 -61 -147 -81 -235 -142 -192 -134 -328
-273 -463 -475 -42 -63 -97 -133 -122 -155 -61 -55 -208 -203 -248 -251 -18
-21 -60 -79 -95 -127 l-62 -88 -6 48 c-7 59 -3 340 6 408 35 265 142 540 287
733 65 88 202 219 286 275 99 66 215 121 327 156 172 52 290 63 500 46z m761
-294 c13 -1 127 -87 189 -141 60 -53 206 -203 201 -207 -2 -2 -39 7 -82 21
-92 30 -239 63 -316 72 -94 10 -321 12 -388 3 -36 -5 -81 -11 -100 -13 -181
-24 -435 -119 -625 -233 -55 -33 -139 -80 -187 -106 -47 -25 -122 -68 -165
-95 -112 -69 -110 -68 -97 -51 124 164 243 288 363 379 18 14 38 30 44 35 35
30 193 124 281 166 181 86 413 151 590 166 39 3 72 6 73 7 2 2 200 -1 219 -3z
m294 -42 c47 -11 128 -33 179 -50 84 -28 121 -42 221 -88 53 -24 177 -95 223
-127 26 -19 52 -34 57 -34 6 0 10 -4 10 -8 0 -4 12 -15 28 -24 15 -9 36 -25
47 -35 11 -10 41 -35 66 -55 98 -79 251 -249 341 -378 86 -124 200 -345 233
-448 l7 -23 -24 20 c-12 11 -34 30 -48 41 -79 69 -404 280 -431 280 -4 0 -31
30 -61 68 -155 190 -359 359 -560 462 -59 30 -94 56 -121 89 -80 98 -178 195
-312 310 l-40 33 50 -6 c28 -4 88 -16 135 -27z m-1794 -770 c-103 -109 -217
-276 -286 -419 -28 -58 -48 -91 -44 -75 13 64 59 185 111 296 52 111 58 119
121 165 60 45 172 121 180 123 2 1 -35 -40 -82 -90z m-305 -251 c-50 -112
-107 -306 -127 -432 -3 -21 -7 -46 -9 -55 -10 -56 -19 -221 -24 -454 -1 -27
-5 -46 -10 -42 -21 12 -127 318 -145 415 -2 14 -11 56 -19 94 -14 65 -14 72 3
105 23 45 121 183 180 252 48 57 167 179 175 179 2 0 -8 -28 -24 -62z m3138
-34 c118 -72 259 -176 339 -251 l73 -68 24 -110 c13 -60 26 -130 30 -155 3
-25 8 -63 11 -85 8 -57 8 -319 1 -390 -13 -116 -19 -151 -53 -280 -19 -71 -35
-136 -36 -143 -4 -30 -11 3 -13 60 -3 71 -15 202 -21 233 -3 11 -7 38 -10 60
-17 115 -95 369 -159 510 -14 33 -37 101 -50 150 -44 167 -119 350 -190 461
-19 30 -32 54 -29 54 4 0 41 -21 83 -46z m591 -514 c19 -25 37 -47 41 -50 8
-6 103 -158 135 -215 64 -115 134 -329 150 -461 54 -434 -162 -826 -576 -1046
-66 -35 -192 -88 -210 -88 -5 0 2 17 16 38 56 81 124 233 160 357 25 88 29
104 49 220 7 44 23 103 35 130 56 129 118 356 137 500 3 22 7 132 8 245 3 181
1 221 -20 340 -14 74 -25 137 -25 140 0 8 62 -60 100 -110z m-4095 -12 c28
-131 66 -251 125 -395 l38 -91 -29 -54 c-105 -195 -171 -368 -219 -578 l-13
-54 -24 51 c-25 57 -70 211 -81 283 -9 61 -8 343 1 405 13 84 47 214 76 294
36 98 92 221 101 221 4 0 15 -37 25 -82z m3717 -300 c33 -96 45 -138 64 -223
26 -115 22 -92 43 -267 4 -37 6 -127 5 -200 l-2 -133 -53 -103 c-133 -260
-347 -496 -597 -660 -76 -49 -89 -55 -140 -55 -76 -1 -215 6 -225 11 -4 2 34
31 85 65 51 33 98 66 104 71 7 6 31 27 55 46 207 166 408 440 509 695 93 233
125 405 125 668 0 86 1 157 1 157 1 0 13 -33 26 -72z m-3489 -348 c42 -346
240 -736 504 -997 67 -65 179 -157 261 -212 34 -23 62 -44 62 -47 0 -2 -12 -2
-27 0 -16 3 -46 8 -68 10 -22 3 -51 8 -65 11 -14 2 -38 7 -55 11 -52 10 -228
65 -275 86 -43 19 -70 33 -158 77 -127 65 -319 241 -415 381 l-55 80 15 78
c29 160 106 380 191 546 l45 88 17 -33 c10 -19 20 -54 23 -79z m3543 -761
c-32 -116 -70 -210 -118 -299 -50 -92 -112 -176 -130 -177 -7 -1 -44 -8 -83
-16 -38 -9 -88 -18 -111 -21 -22 -2 -57 -8 -77 -11 -21 -4 -37 -5 -37 -3 0 3
42 36 93 74 163 121 351 326 450 491 17 29 32 51 34 49 1 -1 -8 -40 -21 -87z
m-3796 20 c97 -138 295 -307 455 -387 220 -110 410 -162 650 -179 50 -3 103
-12 120 -21 59 -30 392 -159 455 -176 36 -10 91 -32 124 -48 70 -35 71 -33
-79 -101 -143 -64 -279 -111 -420 -144 -75 -17 -227 -35 -320 -37 -308 -6
-563 86 -750 269 -45 44 -96 101 -113 126 -112 166 -178 393 -175 604 1 117 3
155 7 155 2 0 22 -28 46 -61z m3450 -622 c-81 -77 -90 -84 -190 -151 -127 -84
-280 -144 -445 -173 -142 -25 -401 -19 -535 13 -114 27 -156 39 -215 61 -98
36 -101 44 -15 36 339 -32 666 27 978 177 104 50 133 60 195 65 40 3 84 7 97
10 14 3 45 7 70 11 25 3 63 9 85 14 22 4 42 8 45 9 3 0 -29 -32 -70 -72z
m-530 27 c47 -3 87 -8 89 -10 7 -6 -114 -56 -230 -94 -177 -59 -307 -81 -505
-86 -94 -3 -179 -2 -188 2 -17 7 -17 8 0 18 22 12 23 12 96 20 148 15 400 85
507 141 36 19 57 23 96 20 28 -3 88 -7 135 -11z m-920 -166 c0 -5 -17 -8 -37
-8 -21 0 -33 4 -26 8 15 9 63 9 63 0z"/>
</g>
</svg>
